# xmcd CD database file
#
# Track frame offsets:
#	150
#	33279
#	83141
#	103030
#	139817
#	159767
#	183282
#
# Disc length: 2770 seconds
#
# Revision: 0
# Processed by: cddbd v1.5.2PL0 Copyright (c) Steve Scherf et al.
# Submitted via: CDex 1.70beta2
#
DISCID=4b0ad007
DTITLE=Mikko Hassinen - Elektro GT
DYEAR=2014
DGENRE=Jazz
TTITLE0=Jam Pan Blues
TTITLE1=Coleus - Chipmunk
TTITLE2=Markow
TTITLE3=Hill Cape
TTITLE4=Samarin
TTITLE5=Nightwish
TTITLE6=Thermo Gear Soft
EXTD=YEAR: 2014
EXTT0=
EXTT1=
EXTT2=
EXTT3=
EXTT4=
EXTT5=
EXTT6=
PLAYORDER=
